HIERARCHY
ROOT Hips
{
  OFFSET 0.000000 0.000000 0.000000
  CHANNELS 6 Xposition Yposition Zposition Xrotation Yrotation Zrotation
  JOINT Spine
  {
    OFFSET 0.000000 10.000000 0.000000
    CHANNELS 3 Xrotation Yrotation Zrotation
    JOINT Chest
    {
      OFFSET 0.000000 15.000000 0.000000
      CHANNELS 3 Xrotation Yrotation Zrotation
      JOINT Neck
      {
        OFFSET 0.000000 15.000000 0.000000
        CHANNELS 3 Xrotation Yrotation Zrotation
        JOINT Head
        {
          OFFSET 0.000000 10.000000 0.000000
          CHANNELS 3 Xrotation Yrotation Zrotation
          End Site
          {
            OFFSET 0.0 5.0 2.0
          }
        }
      }
      JOINT LeftShoulder
      {
        OFFSET 20.000000 5.000000 0.000000
        CHANNELS 3 Xrotation Yrotation Zrotation
        JOINT LeftArm
        {
          OFFSET 15.000000 0.000000 0.000000
          CHANNELS 3 Xrotation Yrotation Zrotation
          JOINT LeftForeArm
          {
            OFFSET 25.000000 0.000000 0.000000
            CHANNELS 3 Xrotation Yrotation Zrotation
            JOINT LeftHand
            {
              OFFSET 20.000000 0.000000 0.000000
              CHANNELS 3 Xrotation Yrotation Zrotation
              End Site
              {
                OFFSET -3.0 0.0 2.0
              }
            }
          }
        }
      }
      JOINT RightShoulder
      {
        OFFSET -20.000000 5.000000 0.000000
        CHANNELS 3 Xrotation Yrotation Zrotation
        JOINT RightArm
        {
          OFFSET -15.000000 0.000000 0.000000
          CHANNELS 3 Xrotation Yrotation Zrotation
          JOINT RightForeArm
          {
            OFFSET -25.000000 0.000000 0.000000
            CHANNELS 3 Xrotation Yrotation Zrotation
            JOINT RightHand
            {
              OFFSET -20.000000 0.000000 0.000000
              CHANNELS 3 Xrotation Yrotation Zrotation
              End Site
              {
                OFFSET 3.0 0.0 2.0
              }
            }
          }
        }
      }
    }
  }
  JOINT LeftUpLeg
  {
    OFFSET 10.000000 -10.000000 0.000000
    CHANNELS 3 Xrotation Yrotation Zrotation
    JOINT LeftLeg
    {
      OFFSET 0.000000 -45.000000 0.000000
      CHANNELS 3 Xrotation Yrotation Zrotation
      JOINT LeftFoot
      {
        OFFSET 0.000000 -45.000000 0.000000
        CHANNELS 3 Xrotation Yrotation Zrotation
        JOINT LeftToeBase
        {
          OFFSET 0.000000 0.000000 10.000000
          CHANNELS 3 Xrotation Yrotation Zrotation
          End Site
          {
            OFFSET 0.0 -1.0 3.0
          }
        }
      }
    }
  }
  JOINT RightUpLeg
  {
    OFFSET -10.000000 -10.000000 0.000000
    CHANNELS 3 Xrotation Yrotation Zrotation
    JOINT RightLeg
    {
      OFFSET 0.000000 -45.000000 0.000000
      CHANNELS 3 Xrotation Yrotation Zrotation
      JOINT RightFoot
      {
        OFFSET 0.000000 -45.000000 0.000000
        CHANNELS 3 Xrotation Yrotation Zrotation
        JOINT RightToeBase
        {
          OFFSET 0.000000 0.000000 10.000000
          CHANNELS 3 Xrotation Yrotation Zrotation
          End Site
          {
            OFFSET 0.0 -1.0 3.0
          }
        }
      }
    }
  }
}
MOTION
Frames: 10
Frame Time: 0.033333
-23.023665 0.426234 -65.750918 -78.410423 33.786443 -49.160526 1.094353 0.019893 -2.338617 30.545940 69.062309 15.148496 -35.713147 17.632759 51.541201 0.000000 0.000000 0.000000 -60.833929 38.945114 -117.838549 2.615104 1.142757 131.958175 -4.056208 -2.896770 108.871902 0.000000 0.000000 0.000000 -12.984358 -19.608460 66.557733 31.966802 -54.811425 -57.835027 42.739418 -33.226964 -105.373752 0.000000 0.000000 0.000000 2.735883 0.483240 -19.966483 -12.088528 -0.123844 -1.199753 95.225228 -77.358151 -83.836161 0.000000 0.000000 0.000000 -10.878850 1.550203 16.160520 -19.572493 1.520926 8.822932 31.760695 -71.314461 -23.057740 0.000000 0.000000 0.000000
-24.793614 0.429550 -69.242334 -78.395167 33.781189 -49.157289 0.877271 0.019435 -2.695992 31.867153 69.729313 16.466697 -33.941338 17.089735 52.465065 0.000000 0.000000 0.000000 -63.005208 39.679760 -119.012989 4.183880 1.812570 132.216110 -2.674056 -1.912945 108.941666 0.000000 0.000000 0.000000 -12.096560 -18.945190 64.723521 32.388194 -55.050764 -58.245177 42.535056 -32.434142 -106.443246 0.000000 0.000000 0.000000 2.687774 0.463213 -19.534318 -11.845126 -0.082999 -0.767791 99.329987 -76.881986 -87.468539 0.000000 0.000000 0.000000 -10.889049 1.570302 16.369251 -19.321533 1.672088 9.823901 33.414746 -70.408247 -23.903980 0.000000 0.000000 0.000000
-25.294399 0.433188 -70.375106 -77.832527 33.494361 -49.123660 0.847009 0.020765 -2.862362 32.200502 69.490530 17.101652 -33.323355 16.809796 52.563766 0.000000 0.000000 0.000000 -64.946701 40.621407 -119.639648 6.955273 3.033482 132.371509 -0.944949 -0.683104 108.711075 0.000000 0.000000 0.000000 -11.564023 -18.606845 63.410357 33.089997 -55.460309 -58.912625 43.081673 -32.190838 -107.626689 0.000000 0.000000 0.000000 2.870329 0.487228 -19.257072 -10.782010 -0.040390 -0.295147 92.340001 -75.955075 -80.096699 0.000000 0.000000 0.000000 -10.533770 1.531622 16.507784 -19.011879 1.808181 10.784870 35.279428 -69.870248 -25.044249 0.000000 0.000000 0.000000
-25.189923 0.437160 -70.268943 -76.877233 33.015793 -49.055814 1.113569 0.026893 -2.845346 31.742422 68.586035 17.163178 -33.521331 16.726392 52.060001 0.000000 0.000000 0.000000 -66.568486 41.631703 -119.851662 9.350433 4.091864 132.706372 0.176324 0.126854 108.570515 0.000000 0.000000 0.000000 -11.303636 -18.446842 62.718232 33.817054 -55.879463 -59.613621 44.009415 -32.255548 -108.798755 0.000000 0.000000 0.000000 3.360714 0.576964 -19.346431 -9.126352 0.010193 0.359150 75.892266 -74.908307 -63.462332 0.000000 0.000000 0.000000 -10.022500 1.465667 16.614386 -18.609761 1.938731 11.832518 37.705751 -69.710432 -26.764492 0.000000 0.000000 0.000000
-24.989269 0.441919 -69.887432 -75.738948 32.486180 -48.926629 1.620113 0.036479 -2.688445 30.678182 67.374949 16.626135 -33.989292 16.714370 51.363069 0.000000 0.000000 0.000000 -67.328319 42.448629 -119.502923 10.524952 4.597047 132.873720 0.638462 0.459093 108.338997 0.000000 0.000000 0.000000 -11.314368 -18.527995 62.539050 34.365510 -56.245830 -60.094899 44.848318 -32.383748 -109.729029 0.000000 0.000000 0.000000 4.381223 0.792867 -20.023192 -7.177582 0.054373 1.306351 62.793172 -74.006099 -50.236731 0.000000 0.000000 0.000000 -9.297064 1.367853 16.723215 -18.246945 2.095237 13.039710 40.344514 -69.761992 -28.746009 0.000000 0.000000 0.000000
-25.102640 0.447531 -70.037163 -74.683555 32.060609 -48.728107 2.257997 0.045304 -2.430155 29.432779 66.161705 15.812805 -34.343435 16.701670 50.823687 0.000000 0.000000 0.000000 -67.214968 43.045241 -118.609609 11.223969 4.867896 133.109808 0.763508 0.541305 108.548378 0.000000 0.000000 0.000000 -11.510875 -18.725028 62.859907 34.301764 -56.371487 -59.871116 45.170355 -32.510959 -109.940205 0.000000 0.000000 0.000000 5.773115 1.123262 -21.270668 -5.464520 0.095976 2.615641 56.393035 -73.473325 -43.628569 0.000000 0.000000 0.000000 -8.448384 1.249929 16.797502 -18.029254 2.281872 14.325613 43.612674 -69.969953 -31.332018 0.000000 0.000000 0.000000
-25.697100 0.453348 -71.008341 -73.855616 31.794663 -48.490324 2.821264 0.048771 -2.091389 28.266598 65.129998 14.930212 -34.288807 16.647913 50.752252 0.000000 0.000000 0.000000 -66.333683 43.386749 -117.313437 12.905310 5.532990 133.546198 1.356439 0.946624 109.112158 0.000000 0.000000 0.000000 -11.850535 -19.025706 63.511199 33.562174 -56.280961 -58.813699 45.029585 -32.700018 -109.415648 0.000000 0.000000 0.000000 7.345542 1.541523 -22.946018 -4.387003 0.134785 4.092679 58.428569 -73.179840 -45.106588 0.000000 0.000000 0.000000 -7.644149 1.128030 16.742722 -18.081830 2.479729 15.469876 47.309967 -70.322011 -34.373206 0.000000 0.000000 0.000000
-27.035276 0.458767 -73.125725 -73.204129 31.625351 -48.253459 3.203335 0.042967 -1.588889 26.948376 64.092412 13.763061 -34.129291 16.609229 50.868467 0.000000 0.000000 0.000000 -64.885398 43.548557 -115.669941 12.305602 5.242990 134.903853 1.610334 1.119732 110.925152 0.000000 0.000000 0.000000 -12.299118 -19.454389 64.255195 32.376661 -56.856287 -56.454188 46.272196 -33.896682 -108.994157 0.000000 0.000000 0.000000 8.955059 2.014261 -24.792372 -3.517664 0.150338 5.143304 60.840582 -73.047824 -47.018416 0.000000 0.000000 0.000000 -7.176950 1.040664 16.479377 -18.719831 2.712243 16.305355 57.754516 -70.808978 -43.682896 0.000000 0.000000 0.000000
-28.985171 0.462548 -76.144763 -72.752924 31.536586 -48.052797 3.317521 0.025119 -0.838360 25.563023 63.045707 12.472699 -34.172776 16.644802 50.907211 0.000000 0.000000 0.000000 -63.004847 43.632635 -113.645168 8.455792 3.772961 137.731078 1.532991 1.063050 114.828693 0.000000 0.000000 0.000000 -12.878698 -20.057031 65.055351 30.460851 -57.938038 -52.499194 48.218127 -35.840235 -108.311662 0.000000 0.000000 0.000000 10.599224 2.511098 -26.318317 -2.101303 0.119693 5.364675 61.326119 -72.993335 -47.387646 0.000000 0.000000 0.000000 -7.842351 1.077906 15.890390 -19.994105 2.998969 16.846099 69.929534 -71.213798 -54.487420 0.000000 0.000000 0.000000
-31.777632 0.466436 -80.511486 -72.446675 31.491742 -47.895637 3.305178 0.003080 -0.055642 24.594861 62.356473 11.519953 -34.005984 16.579057 50.965884 0.000000 0.000000 0.000000 -61.842977 44.090531 -111.838199 1.461268 1.292697 141.949000 0.657198 0.529011 119.830041 0.000000 0.000000 0.000000 -13.295367 -20.575370 65.396255 28.292246 -59.120775 -48.046180 51.029983 -38.131954 -108.171545 0.000000 0.000000 0.000000 12.394581 2.941102 -26.700420 -0.120854 0.049094 4.889161 59.083306 -72.879881 -45.511772 0.000000 0.000000 0.000000 -10.053543 1.279024 15.014973 -21.903192 3.498111 17.717441 82.672969 -70.133251 -64.392284 0.000000 0.000000 0.000000
